<svg width="474" height="105" viewBox="0 0 474 105" fill="none" xmlns="http://www.w3.org/2000/svg">
<path d="M34.5703 103.648V79.6836C33.3984 82.8477 31.8359 85.3477 29.8828 87.1836C27.9688 89.0195 25.1758 89.9375 21.5039 89.9375C17.4414 89.9375 14.2188 89.1953 11.8359 87.7109C9.45312 86.2266 7.67578 84.1758 6.50391 81.5586C5.33203 78.9414 4.55078 75.875 4.16016 72.3594C3.80859 68.8438 3.63281 65.0742 3.63281 61.0508V22.8477C3.63281 16.0898 4.82422 10.6211 7.20703 6.44141C9.62891 2.26172 13.7109 0.171875 19.4531 0.171875C23.7109 0.171875 26.9727 1.08984 29.2383 2.92578C31.543 4.72266 33.3203 7.24219 34.5703 10.4844V1.10938H55.8984V103.648H34.5703ZM29.5312 73.5312C31.3672 73.5312 32.6562 72.5742 33.3984 70.6602C34.1797 68.7461 34.5703 66.0703 34.5703 62.6328V25.543C34.5703 23.4727 34.2578 21.4414 33.6328 19.4492C33.0469 17.418 31.7188 16.4023 29.6484 16.4023C27.3828 16.4023 25.957 17.3594 25.3711 19.2734C24.7852 21.1875 24.4922 23.2773 24.4922 25.543V62.5156C24.4922 69.8594 26.1719 73.5312 29.5312 73.5312ZM80.918 89.9375C76.2305 89.9375 72.6367 88.9609 70.1367 87.0078C67.6758 85.0547 65.9961 82.3398 65.0977 78.8633C64.1992 75.3477 63.75 71.2461 63.75 66.5586V1.10938H84.8438V64.0977C84.8438 67.6133 85.1172 70.0742 85.6641 71.4805C86.2109 72.8477 87.5 73.5312 89.5312 73.5312C91.7188 73.5312 93.0859 72.5547 93.6328 70.6016C94.2188 68.6484 94.5117 66.1289 94.5117 63.043V1.10938H115.43V89H94.4531V79.625C93.125 82.9844 91.5234 85.543 89.6484 87.3008C87.8125 89.0586 84.9023 89.9375 80.918 89.9375ZM139.863 89.9375C134.98 89.9375 131.25 88.8047 128.672 86.5391C126.133 84.2734 124.395 81.168 123.457 77.2227C122.52 73.2773 122.051 68.8047 122.051 63.8047C122.051 58.4531 122.578 54.0781 123.633 50.6797C124.688 47.2422 126.484 44.4297 129.023 42.2422C131.602 40.0547 135.137 38.1992 139.629 36.6758L152.637 32.2227V23.1992C152.637 18.4727 151.094 16.1094 148.008 16.1094C145.195 16.1094 143.789 18.0234 143.789 21.8516V27.125H123.398C123.359 26.8125 123.34 26.4219 123.34 25.9531C123.34 25.4453 123.34 24.8789 123.34 24.2539C123.34 15.5039 125.391 9.3125 129.492 5.67969C133.633 2.00781 140.176 0.171875 149.121 0.171875C153.809 0.171875 158.008 1.01172 161.719 2.69141C165.43 4.33203 168.359 6.77344 170.508 10.0156C172.695 13.2578 173.789 17.2617 173.789 22.0273V89H152.93V78.5703C151.914 82.2422 150.234 85.0547 147.891 87.0078C145.547 88.9609 142.871 89.9375 139.863 89.9375ZM148.125 73.6484C149.844 73.6484 151.016 72.9258 151.641 71.4805C152.266 70.0352 152.578 68.4727 152.578 66.793V42.3008C149.688 43.4727 147.441 44.957 145.84 46.7539C144.238 48.5117 143.438 51.1094 143.438 54.5469V65.8555C143.438 71.0508 145 73.6484 148.125 73.6484ZM181.875 89V1.10938H202.852V12.3008C203.633 8.94141 205.078 6.08984 207.188 3.74609C209.336 1.36328 212.305 0.171875 216.094 0.171875C222.188 0.171875 226.602 2.04688 229.336 5.79688C232.109 9.54688 233.496 14.6836 233.496 21.207V89H212.812V23.375C212.812 21.6563 212.461 20.0742 211.758 18.6289C211.055 17.1445 209.844 16.4023 208.125 16.4023C206.523 16.4023 205.332 16.9688 204.551 18.1016C203.809 19.1953 203.34 20.582 203.145 22.2617C202.949 23.9023 202.852 25.543 202.852 27.1836V89H181.875ZM265.43 104.234C261.367 104.234 257.871 104.02 254.941 103.59C252.051 103.199 249.453 102.477 247.148 101.422C244.844 100.367 242.539 98.8828 240.234 96.9688L247.324 84.8398C252.441 87.8867 257.559 89.4102 262.676 89.4102C266.035 89.4102 268.535 88.3359 270.176 86.1875C271.816 84.0391 272.637 81.2461 272.637 77.8086V69.1953C270.957 75.2109 266.484 78.2188 259.219 78.2188C255.039 78.2188 251.66 77.2227 249.082 75.2305C246.504 73.2383 244.629 70.543 243.457 67.1445C242.285 63.7461 241.699 59.957 241.699 55.7773V24.1953C241.699 19.4687 242.207 15.3086 243.223 11.7148C244.238 8.08203 246.016 5.25 248.555 3.21875C251.094 1.1875 254.648 0.171875 259.219 0.171875C263.086 0.171875 266.094 1.14844 268.242 3.10156C270.43 5.05469 271.895 7.69141 272.637 11.0117V1.10938H294.023V76.4609C294.023 86.4219 291.719 93.5312 287.109 97.7891C282.539 102.086 275.312 104.234 265.43 104.234ZM267.715 62.3984C270.996 62.3984 272.637 59.4297 272.637 53.4922V23.6094C272.637 22.0078 272.168 20.3672 271.23 18.6875C270.332 17.0078 269.082 16.168 267.48 16.168C265.449 16.168 264.18 16.9297 263.672 18.4531C263.164 19.9375 262.91 21.6563 262.91 23.6094V53.4922C262.91 55.6016 263.164 57.6133 263.672 59.5273C264.219 61.4414 265.566 62.3984 267.715 62.3984ZM302.227 89V1.10938H323.203V12.3008C323.984 8.94141 325.43 6.08984 327.539 3.74609C329.688 1.36328 332.656 0.171875 336.445 0.171875C342.539 0.171875 346.953 2.04688 349.688 5.79688C352.461 9.54688 353.848 14.6836 353.848 21.207V89H333.164V23.375C333.164 21.6563 332.812 20.0742 332.109 18.6289C331.406 17.1445 330.195 16.4023 328.477 16.4023C326.875 16.4023 325.684 16.9688 324.902 18.1016C324.16 19.1953 323.691 20.582 323.496 22.2617C323.301 23.9023 323.203 25.543 323.203 27.1836V89H302.227ZM385.781 104.234C381.719 104.234 378.223 104.02 375.293 103.59C372.402 103.199 369.805 102.477 367.5 101.422C365.195 100.367 362.891 98.8828 360.586 96.9688L367.676 84.8398C372.793 87.8867 377.91 89.4102 383.027 89.4102C386.387 89.4102 388.887 88.3359 390.527 86.1875C392.168 84.0391 392.988 81.2461 392.988 77.8086V69.1953C391.309 75.2109 386.836 78.2188 379.57 78.2188C375.391 78.2188 372.012 77.2227 369.434 75.2305C366.855 73.2383 364.98 70.543 363.809 67.1445C362.637 63.7461 362.051 59.957 362.051 55.7773V24.1953C362.051 19.4687 362.559 15.3086 363.574 11.7148C364.59 8.08203 366.367 5.25 368.906 3.21875C371.445 1.1875 375 0.171875 379.57 0.171875C383.438 0.171875 386.445 1.14844 388.594 3.10156C390.781 5.05469 392.246 7.69141 392.988 11.0117V1.10938H414.375V76.4609C414.375 86.4219 412.07 93.5312 407.461 97.7891C402.891 102.086 395.664 104.234 385.781 104.234ZM388.066 62.3984C391.348 62.3984 392.988 59.4297 392.988 53.4922V23.6094C392.988 22.0078 392.52 20.3672 391.582 18.6875C390.684 17.0078 389.434 16.168 387.832 16.168C385.801 16.168 384.531 16.9297 384.023 18.4531C383.516 19.9375 383.262 21.6563 383.262 23.6094V53.4922C383.262 55.6016 383.516 57.6133 384.023 59.5273C384.57 61.4414 385.918 62.3984 388.066 62.3984ZM418.828 89L434.941 41.7734L420.293 1.05078H441.68L449.238 22.3789L456.68 1.05078H472.266L457.148 44.5273L472.969 89H451.934L443.027 64.2734L434.707 89H418.828Z" fill="black"/>
</svg>
